<svg id="Tavole" xmlns="http://www.w3.org/2000/svg" viewBox="0 0 1500 600"><defs><style>.cls-1{fill:#1e789f;}</style></defs><path class="cls-1" d="M708.57,393H357.71a49.86,49.86,0,0,1-49.8-49.81V158.93a49.86,49.86,0,0,1,49.8-49.8H708.57v17H357.71a32.85,32.85,0,0,0-32.81,32.81V343.22A32.84,32.84,0,0,0,357.71,376H708.57Z"/><path class="cls-1" d="M1142.29,393H758.62V376h383.67a32.84,32.84,0,0,0,32.81-32.81V158.93a32.85,32.85,0,0,0-32.81-32.81H758.62v-17h383.67a49.86,49.86,0,0,1,49.8,49.8V343.22A49.86,49.86,0,0,1,1142.29,393Z"/><path class="cls-1" d="M408.18,192.91V309.13h-17V192.91Z"/><path class="cls-1" d="M445.2,309.13H428.37V192.91H445.2l63.16,95.22h-4.81V192.91h16.84V309.13H503.55l-63-95.22h4.64Z"/><path class="cls-1" d="M555,192.91V309.13H538V192.91Zm45,67.32H539V244.85h61.07Zm8.5-51.77H539.3V192.91h69.25Z"/><path class="cls-1" d="M725.06,250.94q0,17.63-7.14,31.18a53.43,53.43,0,0,1-19.79,21.24Q685.46,311,669,311.05t-29.17-7.69a53,53,0,0,1-19.72-21.16q-7-13.47-7-31.26,0-17.64,7.13-31.18a53.38,53.38,0,0,1,19.8-21.24q12.66-7.7,29-7.7,16.66,0,29.26,7.7a53.78,53.78,0,0,1,19.71,21.16Q725.06,233.14,725.06,250.94Zm-17.8,0q0-13.31-4.73-23.09a36.35,36.35,0,0,0-13.3-15.23,36.73,36.73,0,0,0-20.12-5.45,37.15,37.15,0,0,0-20.2,5.45,36.18,36.18,0,0,0-13.38,15.23q-4.74,9.78-4.73,23.09,0,13.14,4.73,23.08a35.36,35.36,0,0,0,13.38,15.31,37.54,37.54,0,0,0,20.2,5.37,36.73,36.73,0,0,0,20.12-5.45,36.15,36.15,0,0,0,13.3-15.31Q707.27,264.09,707.26,250.94Z"/><path class="cls-1" d="M792.38,311.05q-16.67,0-29.17-7.45a50.48,50.48,0,0,1-19.4-21q-6.9-13.55-6.89-31.5,0-18.12,7.05-31.58a51.68,51.68,0,0,1,19.8-21Q776.51,191,793.18,191a57.4,57.4,0,0,1,24.05,4.89A47.06,47.06,0,0,1,835,209.74a46.31,46.31,0,0,1,9.14,21.16H826a31.07,31.07,0,0,0-12-17.47q-8.82-6.26-21.32-6.26a36.75,36.75,0,0,0-20.12,5.45,35.91,35.91,0,0,0-13.22,15.23q-4.65,9.78-4.65,23.09,0,13.14,4.73,23.08a35.58,35.58,0,0,0,13.3,15.31,36.82,36.82,0,0,0,20,5.37q12.51,0,21.64-6.17a30.28,30.28,0,0,0,12.35-16.75h17.79a46.19,46.19,0,0,1-9.7,20.51,50.3,50.3,0,0,1-18.19,13.79A57.75,57.75,0,0,1,792.38,311.05Z"/><path class="cls-1" d="M930.93,309.13H859.59V192.91h71.18v15.55h-61.4l7.22-6.42v41h48.73v15.07H876.59V300l-7.22-6.57h61.56Z"/><path class="cls-1" d="M963,309.13H946V192.91h44.08q18.92,0,29.58,9.3t10.66,26q0,12-5.78,20.28a33,33,0,0,1-16.35,12.1l23.09,48.58h-18.6l-21.32-45.37H963ZM963,208v40.87h27.09q10.57,0,16.51-5.53t5.93-15q0-9.93-6-15.14T990.08,208Z"/><path class="cls-1" d="M1037,208.46V192.91h86.24v15.55Zm51.61-7.7V309.13h-17V200.76Z"/><path class="cls-1" d="M536.37,446.41a9.21,9.21,0,0,1-.08,1.26,2.45,2.45,0,0,1-.25.86,1.11,1.11,0,0,1-.42.48,1.07,1.07,0,0,1-.56.15H521.13v43a.88.88,0,0,1-.16.53,1,1,0,0,1-.53.37,6.59,6.59,0,0,1-1,.23,11.58,11.58,0,0,1-1.59.09,11.78,11.78,0,0,1-1.57-.09,6.24,6.24,0,0,1-1-.23,1,1,0,0,1-.54-.37.94.94,0,0,1-.15-.53v-43H500.6a1,1,0,0,1-.55-.15,1,1,0,0,1-.4-.48,3,3,0,0,1-.25-.86,6.7,6.7,0,0,1-.1-1.26,6.93,6.93,0,0,1,.1-1.28,3.38,3.38,0,0,1,.25-.9,1,1,0,0,1,.4-.5,1,1,0,0,1,.55-.16h34.46a1.08,1.08,0,0,1,.56.16,1.12,1.12,0,0,1,.42.5,2.77,2.77,0,0,1,.25.9A9.52,9.52,0,0,1,536.37,446.41Z"/><path class="cls-1" d="M548.9,492.13a.88.88,0,0,1-.16.53,1,1,0,0,1-.53.37,6.59,6.59,0,0,1-1,.23,11.58,11.58,0,0,1-1.59.09,11.78,11.78,0,0,1-1.57-.09,6.49,6.49,0,0,1-1-.23,1,1,0,0,1-.54-.37.94.94,0,0,1-.15-.53V444.57a.94.94,0,0,1,.17-.54,1.21,1.21,0,0,1,.58-.36,5.94,5.94,0,0,1,1-.23,10.79,10.79,0,0,1,1.51-.1,11.38,11.38,0,0,1,1.59.1,5.6,5.6,0,0,1,1,.23,1,1,0,0,1,.53.36.93.93,0,0,1,.16.54Z"/><path class="cls-1" d="M597.28,490.4a3.06,3.06,0,0,1-.25,1.31,2.73,2.73,0,0,1-.68.88,2.6,2.6,0,0,1-.93.49,3.35,3.35,0,0,1-1,.16h-2.18a7,7,0,0,1-1.8-.21,4,4,0,0,1-1.46-.77,7.38,7.38,0,0,1-1.39-1.51,21,21,0,0,1-1.47-2.45L571,460.12c-.79-1.46-1.58-3-2.39-4.58s-1.54-3.15-2.24-4.65h-.07c.05,1.84.09,3.71.11,5.63s0,3.81,0,5.7v29.91a.88.88,0,0,1-.16.51,1,1,0,0,1-.55.39,6.17,6.17,0,0,1-1,.23,11.48,11.48,0,0,1-1.59.09,11.64,11.64,0,0,1-1.6-.09,5.64,5.64,0,0,1-1-.23,1,1,0,0,1-.52-.39.89.89,0,0,1-.17-.51V446.41a2.54,2.54,0,0,1,.87-2.18,3.09,3.09,0,0,1,1.9-.66h3.24a8,8,0,0,1,1.92.2,3.78,3.78,0,0,1,1.38.63,5.54,5.54,0,0,1,1.19,1.22,17.45,17.45,0,0,1,1.2,2l11.62,21.75c.71,1.33,1.41,2.63,2.07,3.89s1.31,2.51,1.93,3.73,1.22,2.44,1.83,3.62,1.2,2.38,1.79,3.58h0q-.07-3-.09-6.3c0-2.18,0-4.28,0-6.3V444.68a.82.82,0,0,1,.16-.49,1.23,1.23,0,0,1,.54-.4,3.46,3.46,0,0,1,1-.25,14.29,14.29,0,0,1,1.64-.08,13.36,13.36,0,0,1,1.53.08,3.22,3.22,0,0,1,1,.25,1.22,1.22,0,0,1,.52.4.82.82,0,0,1,.16.49Z"/><path class="cls-1" d="M635.8,490.4a8.45,8.45,0,0,1-.08,1.21,2.49,2.49,0,0,1-.27.86,1.29,1.29,0,0,1-.44.5,1.06,1.06,0,0,1-.55.15H610.68a2.75,2.75,0,0,1-1.67-.59,2.48,2.48,0,0,1-.78-2.09V446.25a2.45,2.45,0,0,1,.78-2.08,2.7,2.7,0,0,1,1.67-.6h23.51a1,1,0,0,1,.55.16,1,1,0,0,1,.4.5,3.27,3.27,0,0,1,.25.86,6.57,6.57,0,0,1,.1,1.28,6.22,6.22,0,0,1-.1,1.21,3.11,3.11,0,0,1-.25.84,1,1,0,0,1-.4.48,1,1,0,0,1-.55.15H614.81V464.6h16.62a.93.93,0,0,1,.56.17,1.43,1.43,0,0,1,.42.48,2.72,2.72,0,0,1,.25.84,9.35,9.35,0,0,1,.07,1.26,8.19,8.19,0,0,1-.07,1.19,2.7,2.7,0,0,1-.25.8,1.05,1.05,0,0,1-.42.44,1.16,1.16,0,0,1-.56.14H614.81v17.73h19.65a1.06,1.06,0,0,1,.55.15,1.29,1.29,0,0,1,.44.48,2.31,2.31,0,0,1,.27.84A9.09,9.09,0,0,1,635.8,490.4Z"/><path class="cls-1" d="M677.47,490.75a4.82,4.82,0,0,1,.59,1.34.76.76,0,0,1-.25.78,2.28,2.28,0,0,1-1.13.39,19.16,19.16,0,0,1-2.09.09c-.81,0-1.45,0-1.91-.06a3.56,3.56,0,0,1-1.09-.21,1.72,1.72,0,0,1-.62-.36,1.8,1.8,0,0,1-.36-.56l-11-19.71-11.14,19.71a2.71,2.71,0,0,1-.42.58,1.58,1.58,0,0,1-.63.36,4.4,4.4,0,0,1-1.09.19c-.46,0-1.08.06-1.84.06a17.06,17.06,0,0,1-2-.09,1.81,1.81,0,0,1-1-.39.83.83,0,0,1-.19-.78,4.36,4.36,0,0,1,.6-1.34L655.37,468l-12.9-22a6.43,6.43,0,0,1-.6-1.36.74.74,0,0,1,.18-.8,1.76,1.76,0,0,1,1.07-.37c.51-.05,1.21-.08,2.1-.08s1.4,0,1.88.06a5.35,5.35,0,0,1,1.15.19,1.2,1.2,0,0,1,.61.39c.13.16.27.35.42.55l10.65,18.53,10.57-18.53a4.81,4.81,0,0,1,.38-.55,1.2,1.2,0,0,1,.55-.39,4.22,4.22,0,0,1,1-.19c.43,0,1-.06,1.76-.06a16.3,16.3,0,0,1,1.93.1,2.23,2.23,0,0,1,1.08.36.82.82,0,0,1,.25.79,4.64,4.64,0,0,1-.54,1.36l-12.87,21.86Z"/><path class="cls-1" d="M718.67,446.41a9.21,9.21,0,0,1-.08,1.26,2.68,2.68,0,0,1-.25.86,1.18,1.18,0,0,1-.42.48,1.07,1.07,0,0,1-.56.15H703.43v43a1,1,0,0,1-.16.53,1,1,0,0,1-.53.37,6.59,6.59,0,0,1-1,.23,11.58,11.58,0,0,1-1.59.09,11.78,11.78,0,0,1-1.57-.09,6.24,6.24,0,0,1-1-.23,1,1,0,0,1-.54-.37.94.94,0,0,1-.15-.53v-43H682.9a1,1,0,0,1-.55-.15,1,1,0,0,1-.4-.48,3,3,0,0,1-.25-.86,6.7,6.7,0,0,1-.1-1.26,6.93,6.93,0,0,1,.1-1.28,3.38,3.38,0,0,1,.25-.9,1,1,0,0,1,.4-.5,1,1,0,0,1,.55-.16h34.46a1.08,1.08,0,0,1,.56.16,1.18,1.18,0,0,1,.42.5,3,3,0,0,1,.25.9A9.52,9.52,0,0,1,718.67,446.41Z"/><path class="cls-1" d="M756.19,490.79a4.45,4.45,0,0,1,.33,1.36.93.93,0,0,1-.29.78,1.88,1.88,0,0,1-1,.35c-.48.05-1.11.07-1.9.07s-1.42,0-1.89-.06a4,4,0,0,1-1.08-.19,1.13,1.13,0,0,1-.53-.36,2.61,2.61,0,0,1-.33-.58l-4.25-12.06h-20.6L720.58,492a2.11,2.11,0,0,1-.3.6,1.68,1.68,0,0,1-.56.42,3.86,3.86,0,0,1-1,.25,16.54,16.54,0,0,1-1.74.07,14.94,14.94,0,0,1-1.82-.09,1.85,1.85,0,0,1-1-.37,1,1,0,0,1-.27-.78,4.77,4.77,0,0,1,.33-1.36l16.62-46a1.93,1.93,0,0,1,.4-.69,1.7,1.7,0,0,1,.73-.42,5.66,5.66,0,0,1,1.22-.21c.5,0,1.13-.06,1.9-.06s1.49,0,2,.06a6.29,6.29,0,0,1,1.3.21,1.65,1.65,0,0,1,.76.44,2.17,2.17,0,0,1,.43.71Zm-21.32-40.63h0l-8.54,24.7h17.23Z"/><path class="cls-1" d="M819.41,450.31a8.25,8.25,0,0,1-.08,1.29,3.43,3.43,0,0,1-.23.92,1.1,1.1,0,0,1-.38.51.9.9,0,0,1-.5.16,3.6,3.6,0,0,1-1.53-.73,23.42,23.42,0,0,0-2.87-1.61,27.26,27.26,0,0,0-4.31-1.61,21.65,21.65,0,0,0-6-.73,17.36,17.36,0,0,0-7.35,1.5,15.84,15.84,0,0,0-5.52,4.13,18.56,18.56,0,0,0-3.46,6.28,26.93,26.93,0,0,0,.11,16.31,18,18,0,0,0,3.66,6.21,15.31,15.31,0,0,0,5.57,3.83,19,19,0,0,0,7.1,1.3,20.25,20.25,0,0,0,4.66-.56,17.33,17.33,0,0,0,4.38-1.66V471.41H801.22a1,1,0,0,1-1-.65,4.7,4.7,0,0,1-.33-2,8.69,8.69,0,0,1,.08-1.24,2.52,2.52,0,0,1,.25-.85,1.26,1.26,0,0,1,.4-.47.94.94,0,0,1,.57-.16H817a2.51,2.51,0,0,1,1.61.62,1.87,1.87,0,0,1,.53.84,3.55,3.55,0,0,1,.2,1.22v18.88a4,4,0,0,1-.35,1.72,3,3,0,0,1-1.45,1.29,28.22,28.22,0,0,1-2.88,1.2,32.8,32.8,0,0,1-7.42,1.8,32.52,32.52,0,0,1-3.79.23A27.82,27.82,0,0,1,793.14,492,21.13,21.13,0,0,1,785.5,487a22.14,22.14,0,0,1-4.76-7.89,32.86,32.86,0,0,1,.13-20.95,23.39,23.39,0,0,1,5-8.15,22.34,22.34,0,0,1,7.77-5.23,26.29,26.29,0,0,1,10.05-1.85,27.25,27.25,0,0,1,5.32.49,33.19,33.19,0,0,1,4.43,1.17,17.51,17.51,0,0,1,3.25,1.46,9.92,9.92,0,0,1,1.82,1.28,2.67,2.67,0,0,1,.69,1.15A6.9,6.9,0,0,1,819.41,450.31Z"/><path class="cls-1" d="M862.56,492.13a1.12,1.12,0,0,1-.12.53.88.88,0,0,1-.49.39,5,5,0,0,1-1.08.23,17.81,17.81,0,0,1-1.83.07,14.44,14.44,0,0,1-1.63-.07,4.21,4.21,0,0,1-1-.25,1.49,1.49,0,0,1-.59-.48,3.07,3.07,0,0,1-.36-.77l-4.56-11.68c-.54-1.32-1.09-2.54-1.66-3.65a12.13,12.13,0,0,0-2.05-2.88,8.55,8.55,0,0,0-2.8-1.87,10,10,0,0,0-3.87-.67h-4.4v21.1a.88.88,0,0,1-.17.53,1.11,1.11,0,0,1-.54.37,5.64,5.64,0,0,1-1,.23,14.09,14.09,0,0,1-3.18,0,6.59,6.59,0,0,1-1-.23,1,1,0,0,1-.53-.37,1,1,0,0,1-.16-.53V446.25a2.46,2.46,0,0,1,.79-2.08,2.7,2.7,0,0,1,1.67-.6H842.5c1.25,0,2.29,0,3.12.1s1.57.13,2.24.21a19.1,19.1,0,0,1,5.07,1.57,12,12,0,0,1,3.69,2.72,10.76,10.76,0,0,1,2.24,3.77,14,14,0,0,1,.75,4.69,13.71,13.71,0,0,1-.67,4.46,10.88,10.88,0,0,1-1.93,3.49,12.61,12.61,0,0,1-3,2.62,19.41,19.41,0,0,1-3.94,1.88,8.94,8.94,0,0,1,2.22,1.36,11.35,11.35,0,0,1,1.86,2,18.1,18.1,0,0,1,1.62,2.64c.51,1,1,2.12,1.54,3.37l4.44,10.91c.35.92.58,1.57.69,1.94A3.51,3.51,0,0,1,862.56,492.13Zm-9.92-34.81a8.84,8.84,0,0,0-1.3-4.92,7.37,7.37,0,0,0-4.36-2.89,11.75,11.75,0,0,0-2.17-.38c-.8-.08-1.86-.12-3.16-.12H836.1v16.7h6.43a14,14,0,0,0,4.5-.64,8.69,8.69,0,0,0,3.16-1.76,6.91,6.91,0,0,0,1.86-2.66A9.25,9.25,0,0,0,852.64,457.32Z"/><path class="cls-1" d="M911,467.77a38.63,38.63,0,0,1-1.41,10.84,22.68,22.68,0,0,1-4.24,8.21A18.4,18.4,0,0,1,898.3,492a25.09,25.09,0,0,1-9.92,1.82,25.45,25.45,0,0,1-9.66-1.67,17,17,0,0,1-6.74-4.84,20.66,20.66,0,0,1-4-7.89,40.69,40.69,0,0,1-1.3-10.83A37.25,37.25,0,0,1,868.13,458a22.15,22.15,0,0,1,4.25-8.14,18.82,18.82,0,0,1,7.08-5.16,25,25,0,0,1,9.92-1.82,25.38,25.38,0,0,1,9.53,1.64,17.24,17.24,0,0,1,6.76,4.81,20.37,20.37,0,0,1,4,7.81A39.16,39.16,0,0,1,911,467.77Zm-7,.46a38.71,38.71,0,0,0-.74-7.83,18.12,18.12,0,0,0-2.49-6.28,12,12,0,0,0-4.64-4.15,15.59,15.59,0,0,0-7.19-1.49,14.68,14.68,0,0,0-7.19,1.6,13.75,13.75,0,0,0-4.73,4.29,18.07,18.07,0,0,0-2.6,6.26,35.34,35.34,0,0,0-.78,7.53,41.06,41.06,0,0,0,.73,8,18,18,0,0,0,2.44,6.33,11.74,11.74,0,0,0,4.61,4.14,15.91,15.91,0,0,0,7.25,1.47,15,15,0,0,0,7.26-1.6,13.09,13.09,0,0,0,4.75-4.35,18.52,18.52,0,0,0,2.56-6.34A36.6,36.6,0,0,0,904,468.23Z"/><path class="cls-1" d="M956.59,474.82a23,23,0,0,1-1.32,8.06,16.5,16.5,0,0,1-3.77,6,16,16,0,0,1-6,3.72,23.61,23.61,0,0,1-8,1.26,22.32,22.32,0,0,1-7.46-1.19,15.86,15.86,0,0,1-5.79-3.5,15.52,15.52,0,0,1-3.71-5.8,22.83,22.83,0,0,1-1.3-8V444.57a1,1,0,0,1,.15-.54,1,1,0,0,1,.54-.36,5.21,5.21,0,0,1,1-.23,11.37,11.37,0,0,1,1.61-.1,11.5,11.5,0,0,1,1.57.1,5.23,5.23,0,0,1,1,.23,1,1,0,0,1,.51.36,1,1,0,0,1,.16.54v29.94a19.34,19.34,0,0,0,.84,6,11.2,11.2,0,0,0,2.43,4.27,10,10,0,0,0,3.83,2.57,14,14,0,0,0,5,.86,14.45,14.45,0,0,0,5.11-.84,9.66,9.66,0,0,0,3.8-2.53,11.32,11.32,0,0,0,2.37-4.17,18.54,18.54,0,0,0,.82-5.82V444.57a.93.93,0,0,1,.16-.54,1,1,0,0,1,.53-.36,5.6,5.6,0,0,1,1-.23,11.38,11.38,0,0,1,1.59-.1,11.08,11.08,0,0,1,1.55.1,4.86,4.86,0,0,1,1,.23,1.22,1.22,0,0,1,.54.36.94.94,0,0,1,.17.54Z"/><path class="cls-1" d="M997.79,458.09a17.65,17.65,0,0,1-1.22,6.7,14.15,14.15,0,0,1-3.51,5.09,15.64,15.64,0,0,1-5.59,3.25,24.07,24.07,0,0,1-7.9,1.15h-5.63v17.85a.83.83,0,0,1-.18.53,1.08,1.08,0,0,1-.53.37,5.79,5.79,0,0,1-1,.23,11.58,11.58,0,0,1-1.59.09,11.78,11.78,0,0,1-1.59-.09,6.17,6.17,0,0,1-1-.23,1,1,0,0,1-.54-.37.94.94,0,0,1-.15-.53V446.41a2.66,2.66,0,0,1,.8-2.18,2.78,2.78,0,0,1,1.8-.66h10.61c1.07,0,2.1.05,3.08.14a29.41,29.41,0,0,1,3.49.57,14.63,14.63,0,0,1,4.09,1.65,12.69,12.69,0,0,1,3.55,3A12.86,12.86,0,0,1,997,453,16,16,0,0,1,997.79,458.09Zm-6.93.53a10.31,10.31,0,0,0-1.13-5.05,7.91,7.91,0,0,0-2.79-3,9.49,9.49,0,0,0-3.45-1.26A23.13,23.13,0,0,0,980,449h-6.08v19.87h5.93a13.87,13.87,0,0,0,5-.76,9.26,9.26,0,0,0,3.31-2.13,8.78,8.78,0,0,0,2-3.25A12,12,0,0,0,990.86,458.62Z"/></svg>