<svg id="Tavole" xmlns="http://www.w3.org/2000/svg" viewBox="0 0 1500 600"><defs><style>.cls-1{fill:#fff;}</style></defs><path class="cls-1" d="M708.57,394H357.71a49.86,49.86,0,0,1-49.8-49.81V159.93a49.86,49.86,0,0,1,49.8-49.8H708.57v17H357.71a32.85,32.85,0,0,0-32.81,32.81V344.22A32.85,32.85,0,0,0,357.71,377H708.57Z"/><path class="cls-1" d="M1142.29,394H758.62V377h383.67a32.85,32.85,0,0,0,32.81-32.81V159.93a32.85,32.85,0,0,0-32.81-32.81H758.62v-17h383.67a49.86,49.86,0,0,1,49.8,49.8V344.22A49.86,49.86,0,0,1,1142.29,394Z"/><path class="cls-1" d="M406.57,194.38V310.12H391.5V194.38Z"/><path class="cls-1" d="M443.44,310.12H428.53V194.38H443.6l64,96.67h-4V194.38h14.91V310.12H503.55l-64.12-96.66h4Z"/><path class="cls-1" d="M552.92,194.38V310.12H537.86V194.38Zm45.69,66.21H538.5V247h60.11Zm8.66-52.26H538.82v-14h68.45Z"/><path class="cls-1" d="M724.09,252.09q0,17.79-7.05,31.26a52.8,52.8,0,0,1-19.56,21.08q-12.5,7.62-29,7.62-16.35,0-28.86-7.62a52.78,52.78,0,0,1-19.55-21.08Q613,269.88,613,252.25t7.14-31.1A54,54,0,0,1,639.77,200q12.51-7.68,28.7-7.69,16.5,0,29,7.69A53.6,53.6,0,0,1,717,221.07Q724.09,234.47,724.09,252.09Zm-15.71,0q0-13.62-5-23.72a38.57,38.57,0,0,0-69.57,0q-5,10.09-5,23.72t5,23.89a37.41,37.41,0,0,0,13.95,15.87,38.48,38.48,0,0,0,20.84,5.61,36.92,36.92,0,0,0,34.78-21.56Q708.38,265.72,708.38,252.09Z"/><path class="cls-1" d="M792.38,311.89q-16.35,0-28.7-7.46a51,51,0,0,1-19.23-20.84q-6.9-13.38-6.9-31.34t7.06-31.34A52.21,52.21,0,0,1,764.25,200q12.57-7.53,29.09-7.53a55.66,55.66,0,0,1,23.48,4.81,46.23,46.23,0,0,1,26.69,34.3H827.32a32.41,32.41,0,0,0-12.58-18q-9.22-6.49-22-6.49a37.8,37.8,0,0,0-20.6,5.61,37.34,37.34,0,0,0-13.79,15.71q-4.89,10.09-4.89,23.88,0,13.47,4.89,23.73a37.14,37.14,0,0,0,13.79,15.87,37.8,37.8,0,0,0,20.6,5.61q13,0,22.44-6.49A32,32,0,0,0,828,273.73h16a47,47,0,0,1-9.78,20,48.38,48.38,0,0,1-18,13.39A58.67,58.67,0,0,1,792.38,311.89Z"/><path class="cls-1" d="M930.93,310.12H860.55V194.38h70.22v14H868.41l7.21-6.41V245.2h49.7v13.47h-49.7v43.92l-7.21-6.41h62.52Z"/><path class="cls-1" d="M962.5,310.12H947.43V194.38h43.45q18.42,0,28.93,9.22t10.5,25.25q0,12.18-5.93,20.52a32,32,0,0,1-16.67,11.86l23.56,48.89H1014.6l-22-46H962.5Zm0-102.11v42.64H991q11.06,0,17.23-5.77t6.17-15.71q0-10.42-6.25-15.79T990.88,208Z"/><path class="cls-1" d="M1038.08,208.33v-14h85v14Zm50-7.05V310.12H1073V201.28Z"/><path class="cls-1" d="M536.36,447.4a9.41,9.41,0,0,1-.07,1.27,2.84,2.84,0,0,1-.25.86,1.26,1.26,0,0,1-.42.48,1.07,1.07,0,0,1-.56.15H521.12v43a1,1,0,0,1-.15.54,1,1,0,0,1-.53.36,5.6,5.6,0,0,1-1,.23,10,10,0,0,1-1.59.1,10.18,10.18,0,0,1-1.57-.1,5.35,5.35,0,0,1-1-.23,1,1,0,0,1-.54-.36,1,1,0,0,1-.15-.54v-43H500.6a1,1,0,0,1-.55-.15,1.09,1.09,0,0,1-.41-.48,4.08,4.08,0,0,1-.25-.86,7.8,7.8,0,0,1-.09-1.27,8.1,8.1,0,0,1,.09-1.28,4.35,4.35,0,0,1,.25-.9,1.16,1.16,0,0,1,.41-.5,1,1,0,0,1,.55-.15h34.46a1.07,1.07,0,0,1,.56.15,1.33,1.33,0,0,1,.42.5,3,3,0,0,1,.25.9A9.77,9.77,0,0,1,536.36,447.4Z"/><path class="cls-1" d="M548.89,493.12a1,1,0,0,1-.15.54,1,1,0,0,1-.53.36,5.6,5.6,0,0,1-1,.23,10,10,0,0,1-1.59.1,10.18,10.18,0,0,1-1.57-.1,5.35,5.35,0,0,1-1-.23,1,1,0,0,1-.54-.36,1,1,0,0,1-.15-.54V445.57a.89.89,0,0,1,.17-.54,1.21,1.21,0,0,1,.58-.36,5.73,5.73,0,0,1,1-.23,9.37,9.37,0,0,1,1.51-.1,10,10,0,0,1,1.59.1,5.6,5.6,0,0,1,1,.23,1,1,0,0,1,.53.36,1,1,0,0,1,.15.54Z"/><path class="cls-1" d="M597.28,491.4a3,3,0,0,1-.26,1.3,2.48,2.48,0,0,1-.67.88,2.63,2.63,0,0,1-.93.5,3.67,3.67,0,0,1-1,.15h-2.18a6.84,6.84,0,0,1-1.8-.21,4.06,4.06,0,0,1-1.47-.76,7.73,7.73,0,0,1-1.38-1.52,19.45,19.45,0,0,1-1.47-2.45L571,461.11c-.79-1.45-1.58-3-2.39-4.57s-1.55-3.15-2.24-4.66h-.08c.06,1.84.09,3.72.12,5.63s0,3.82,0,5.71v29.9a1,1,0,0,1-.16.52,1,1,0,0,1-.55.38,5.28,5.28,0,0,1-1,.23,12.77,12.77,0,0,1-3.19,0,4.86,4.86,0,0,1-1-.23.94.94,0,0,1-.69-.9V447.4a2.55,2.55,0,0,1,.87-2.18,3.12,3.12,0,0,1,1.9-.65h3.24a8.08,8.08,0,0,1,1.92.19,4.13,4.13,0,0,1,1.38.63,5.84,5.84,0,0,1,1.19,1.23,16.59,16.59,0,0,1,1.2,2l11.62,21.75c.71,1.33,1.4,2.62,2.07,3.89s1.31,2.5,1.92,3.73,1.23,2.43,1.84,3.62,1.2,2.38,1.79,3.58h0q-.07-3-.1-6.3t0-6.3V445.68a.86.86,0,0,1,.17-.5,1.27,1.27,0,0,1,.54-.4,3.71,3.71,0,0,1,1-.25,14.52,14.52,0,0,1,1.64-.07,13.59,13.59,0,0,1,1.53.07,3.44,3.44,0,0,1,1,.25,1.36,1.36,0,0,1,.53.4.85.85,0,0,1,.16.5Z"/><path class="cls-1" d="M635.79,491.4a8.67,8.67,0,0,1-.07,1.21,2.49,2.49,0,0,1-.27.86,1.33,1.33,0,0,1-.44.49,1,1,0,0,1-.56.16H610.67a2.69,2.69,0,0,1-1.66-.6,2.46,2.46,0,0,1-.79-2.08V447.25a2.48,2.48,0,0,1,.79-2.09,2.74,2.74,0,0,1,1.66-.59h23.52a1.06,1.06,0,0,1,.55.15,1.08,1.08,0,0,1,.4.5,3.86,3.86,0,0,1,.25.86,6.68,6.68,0,0,1,.1,1.29,6.12,6.12,0,0,1-.1,1.2,3.25,3.25,0,0,1-.25.84,1,1,0,0,1-.4.48,1.07,1.07,0,0,1-.55.16H614.81v15.54h16.62a1,1,0,0,1,.55.17,1.54,1.54,0,0,1,.43.48,2.64,2.64,0,0,1,.24.84,7.9,7.9,0,0,1,.08,1.27,7,7,0,0,1-.08,1.19,2.45,2.45,0,0,1-.24.8,1.14,1.14,0,0,1-.43.44,1.12,1.12,0,0,1-.55.13H614.81v17.73h19.64a1,1,0,0,1,.56.16,1.43,1.43,0,0,1,.44.47,2.3,2.3,0,0,1,.27.85A9.17,9.17,0,0,1,635.79,491.4Z"/><path class="cls-1" d="M677.46,491.74a5,5,0,0,1,.6,1.34.77.77,0,0,1-.25.79,2.19,2.19,0,0,1-1.13.38,16.71,16.71,0,0,1-2.09.1c-.82,0-1.45,0-1.91-.06a4.38,4.38,0,0,1-1.1-.21,1.76,1.76,0,0,1-.61-.36,1.8,1.8,0,0,1-.36-.56l-11-19.72-11.14,19.72a2.63,2.63,0,0,1-.42.57,1.62,1.62,0,0,1-.63.37,5,5,0,0,1-1.1.19q-.69.06-1.83.06a15,15,0,0,1-2-.1,1.74,1.74,0,0,1-1-.38.84.84,0,0,1-.19-.79,4.65,4.65,0,0,1,.59-1.34L655.37,469l-12.91-22a6.61,6.61,0,0,1-.59-1.36.76.76,0,0,1,.17-.8,1.89,1.89,0,0,1,1.08-.36c.51-.05,1.21-.08,2.1-.08s1.39,0,1.88.06a5.46,5.46,0,0,1,1.15.19,1.26,1.26,0,0,1,.61.38l.42.56,10.65,18.53,10.56-18.53a6.79,6.79,0,0,1,.39-.56,1.2,1.2,0,0,1,.55-.38,4.12,4.12,0,0,1,1-.19c.43,0,1-.06,1.76-.06a14.5,14.5,0,0,1,1.93.1,2,2,0,0,1,1.07.36.79.79,0,0,1,.25.78,4.46,4.46,0,0,1-.53,1.36l-12.87,21.87Z"/><path class="cls-1" d="M718.66,447.4a9.41,9.41,0,0,1-.07,1.27,2.84,2.84,0,0,1-.25.86,1.26,1.26,0,0,1-.42.48,1.07,1.07,0,0,1-.56.15H703.42v43a1,1,0,0,1-.15.54,1,1,0,0,1-.53.36,5.6,5.6,0,0,1-1,.23,10,10,0,0,1-1.59.1,10.18,10.18,0,0,1-1.57-.1,5.35,5.35,0,0,1-1-.23,1,1,0,0,1-.54-.36,1,1,0,0,1-.15-.54v-43H682.9a1,1,0,0,1-1-.63,4.08,4.08,0,0,1-.25-.86,7.8,7.8,0,0,1-.09-1.27,8.1,8.1,0,0,1,.09-1.28,4.35,4.35,0,0,1,.25-.9,1.09,1.09,0,0,1,.41-.5,1,1,0,0,1,.55-.15h34.46a1.07,1.07,0,0,1,.56.15,1.33,1.33,0,0,1,.42.5,3,3,0,0,1,.25.9A9.77,9.77,0,0,1,718.66,447.4Z"/><path class="cls-1" d="M756.19,491.78a4.85,4.85,0,0,1,.33,1.36,1,1,0,0,1-.29.79,1.82,1.82,0,0,1-1,.34,18.5,18.5,0,0,1-1.89.08c-.79,0-1.42,0-1.9-.06a4.32,4.32,0,0,1-1.07-.19,1.08,1.08,0,0,1-.53-.37,2.52,2.52,0,0,1-.33-.57l-4.25-12.06h-20.6L720.58,493a2.17,2.17,0,0,1-.3.59,1.45,1.45,0,0,1-.56.42,3.22,3.22,0,0,1-1,.25,16.22,16.22,0,0,1-1.75.08,13,13,0,0,1-1.82-.1,1.77,1.77,0,0,1-1-.36,1,1,0,0,1-.27-.79,4.59,4.59,0,0,1,.33-1.36l16.61-46a2.11,2.11,0,0,1,.41-.69,1.62,1.62,0,0,1,.72-.42,5.76,5.76,0,0,1,1.23-.21q.75-.06,1.89-.06c.82,0,1.5,0,2,.06a6.4,6.4,0,0,1,1.31.21,1.7,1.7,0,0,1,.76.44,2,2,0,0,1,.42.71Zm-21.33-40.62h0l-8.54,24.69h17.23Z"/><path class="cls-1" d="M819.41,451.31a9.63,9.63,0,0,1-.08,1.28,3.73,3.73,0,0,1-.23.92,1.14,1.14,0,0,1-.38.52.89.89,0,0,1-.5.15,3.38,3.38,0,0,1-1.53-.73,23.54,23.54,0,0,0-2.87-1.6,26.31,26.31,0,0,0-4.31-1.61,21.32,21.32,0,0,0-6-.73,17.48,17.48,0,0,0-7.35,1.49,16,16,0,0,0-5.52,4.14,18.3,18.3,0,0,0-3.46,6.28,26.93,26.93,0,0,0,.11,16.31,17.85,17.85,0,0,0,3.66,6.2,15.1,15.1,0,0,0,5.57,3.83,18.81,18.81,0,0,0,7.1,1.3,20.21,20.21,0,0,0,4.65-.55,17.57,17.57,0,0,0,4.39-1.67V472.41H801.22a1.06,1.06,0,0,1-1-.65,4.92,4.92,0,0,1-.32-2,7.56,7.56,0,0,1,.08-1.25,2.8,2.8,0,0,1,.24-.84,1.24,1.24,0,0,1,.41-.48,1,1,0,0,1,.57-.15H817a2.48,2.48,0,0,1,.84.15,2.43,2.43,0,0,1,.77.46,2.09,2.09,0,0,1,.53.84,3.61,3.61,0,0,1,.19,1.23v18.88a4,4,0,0,1-.34,1.72,3,3,0,0,1-1.46,1.28,30.07,30.07,0,0,1-2.87,1.21,33.05,33.05,0,0,1-7.43,1.8,32.39,32.39,0,0,1-3.79.23A27.94,27.94,0,0,1,793.14,493,20.94,20.94,0,0,1,785.5,488a22,22,0,0,1-4.76-7.88,32.86,32.86,0,0,1,.13-20.95,23.44,23.44,0,0,1,5-8.16,22.36,22.36,0,0,1,7.77-5.22,26.22,26.22,0,0,1,10.05-1.86,27.23,27.23,0,0,1,5.32.5,33,33,0,0,1,4.42,1.17,17.66,17.66,0,0,1,3.26,1.45,10.44,10.44,0,0,1,1.82,1.28,2.79,2.79,0,0,1,.69,1.15A7.42,7.42,0,0,1,819.41,451.31Z"/><path class="cls-1" d="M862.56,493.12a1.13,1.13,0,0,1-.12.54.87.87,0,0,1-.49.38,4.43,4.43,0,0,1-1.08.23,17.49,17.49,0,0,1-1.83.08,14.1,14.1,0,0,1-1.63-.08,3.45,3.45,0,0,1-1-.25,1.34,1.34,0,0,1-.59-.48,3,3,0,0,1-.36-.76l-4.56-11.68c-.54-1.33-1.09-2.55-1.67-3.66a11.57,11.57,0,0,0-2-2.87,8.68,8.68,0,0,0-2.8-1.88,10.16,10.16,0,0,0-3.87-.67h-4.4v21.1a.89.89,0,0,1-.17.54,1.22,1.22,0,0,1-.54.36,4.86,4.86,0,0,1-1,.23,10.19,10.19,0,0,1-1.59.1,10,10,0,0,1-1.59-.1,5.6,5.6,0,0,1-1-.23,1,1,0,0,1-.53-.36.89.89,0,0,1-.16-.54V447.25a2.48,2.48,0,0,1,.79-2.09,2.74,2.74,0,0,1,1.66-.59h10.53c1.25,0,2.3,0,3.13.1s1.57.13,2.23.21a18.7,18.7,0,0,1,5.08,1.57,11.94,11.94,0,0,1,3.69,2.71,10.8,10.8,0,0,1,2.24,3.78,14,14,0,0,1,.75,4.69,13.75,13.75,0,0,1-.67,4.46,10.94,10.94,0,0,1-1.93,3.48,12.85,12.85,0,0,1-3,2.63,19.39,19.39,0,0,1-3.94,1.87,9.65,9.65,0,0,1,2.22,1.36,12.12,12.12,0,0,1,1.86,2,19.25,19.25,0,0,1,1.62,2.64c.51,1,1,2.12,1.53,3.37l4.45,10.92c.35.92.58,1.56.69,1.93A3.59,3.59,0,0,1,862.56,493.12Zm-9.92-34.8a8.84,8.84,0,0,0-1.3-4.92,7.32,7.32,0,0,0-4.37-2.89,12.3,12.3,0,0,0-2.16-.39c-.8-.07-1.86-.11-3.16-.11H836.1V466.7h6.43a14.29,14.29,0,0,0,4.5-.63,8.93,8.93,0,0,0,3.16-1.76,6.91,6.91,0,0,0,1.86-2.66A9.25,9.25,0,0,0,852.64,458.32Z"/><path class="cls-1" d="M911,468.77a38.26,38.26,0,0,1-1.42,10.84,22.59,22.59,0,0,1-4.23,8.21A18.5,18.5,0,0,1,898.3,493a25.09,25.09,0,0,1-9.92,1.82,25.5,25.5,0,0,1-9.67-1.67,17.09,17.09,0,0,1-6.74-4.84,20.79,20.79,0,0,1-4-7.89,40.72,40.72,0,0,1-1.3-10.84A37.22,37.22,0,0,1,868.13,459a22.07,22.07,0,0,1,4.25-8.14,18.84,18.84,0,0,1,7.08-5.17,28.14,28.14,0,0,1,19.45-.17,17.32,17.32,0,0,1,6.76,4.8,20.41,20.41,0,0,1,4,7.82A39.1,39.1,0,0,1,911,468.77Zm-7,.46a39.29,39.29,0,0,0-.74-7.83,18,18,0,0,0-2.49-6.28,12.07,12.07,0,0,0-4.65-4.16,15.64,15.64,0,0,0-7.18-1.49,14.68,14.68,0,0,0-7.19,1.61,13.47,13.47,0,0,0-4.73,4.29,17.91,17.91,0,0,0-2.6,6.26,35.24,35.24,0,0,0-.78,7.52,41.06,41.06,0,0,0,.73,8,18,18,0,0,0,2.44,6.34,11.82,11.82,0,0,0,4.61,4.14,15.91,15.91,0,0,0,7.25,1.47,15,15,0,0,0,7.26-1.61,13.06,13.06,0,0,0,4.75-4.34,18.61,18.61,0,0,0,2.56-6.34A36.6,36.6,0,0,0,904,469.23Z"/><path class="cls-1" d="M956.59,475.82a23,23,0,0,1-1.32,8.06,16.58,16.58,0,0,1-3.77,6,16,16,0,0,1-6,3.71,23.64,23.64,0,0,1-8,1.27,22.42,22.42,0,0,1-7.47-1.19,15.79,15.79,0,0,1-5.78-3.51,15.25,15.25,0,0,1-3.71-5.8,22.83,22.83,0,0,1-1.3-8V445.57a1,1,0,0,1,.15-.54,1,1,0,0,1,.54-.36,5.21,5.21,0,0,1,1-.23,10,10,0,0,1,1.61-.1,10.18,10.18,0,0,1,1.57.1,4.94,4.94,0,0,1,1,.23,1,1,0,0,1,.52.36,1,1,0,0,1,.15.54v29.94a19,19,0,0,0,.85,6,11.35,11.35,0,0,0,2.43,4.27,10.12,10.12,0,0,0,3.83,2.57,14,14,0,0,0,5,.86,14.22,14.22,0,0,0,5.11-.85,9.64,9.64,0,0,0,3.79-2.52,11.33,11.33,0,0,0,2.38-4.18,18.54,18.54,0,0,0,.82-5.82V445.57a.89.89,0,0,1,.16-.54,1,1,0,0,1,.53-.36,5.41,5.41,0,0,1,1-.23,10,10,0,0,1,1.58-.1,9.87,9.87,0,0,1,1.56.1,4.86,4.86,0,0,1,1,.23,1.22,1.22,0,0,1,.54.36.89.89,0,0,1,.17.54Z"/><path class="cls-1" d="M997.79,459.08a17.43,17.43,0,0,1-1.23,6.7,14.13,14.13,0,0,1-3.5,5.1,15.78,15.78,0,0,1-5.59,3.25,24.1,24.1,0,0,1-7.91,1.15h-5.63v17.84a.83.83,0,0,1-.17.54,1.13,1.13,0,0,1-.53.36,5.15,5.15,0,0,1-1,.23,12.69,12.69,0,0,1-3.18,0,5.28,5.28,0,0,1-1-.23,1,1,0,0,1-.54-.36,1,1,0,0,1-.15-.54V447.4a2.68,2.68,0,0,1,.8-2.18,2.83,2.83,0,0,1,1.8-.65h10.61c1.07,0,2.1,0,3.08.13a30,30,0,0,1,3.49.58,14.3,14.3,0,0,1,4.09,1.64,13.14,13.14,0,0,1,3.54,3A12.82,12.82,0,0,1,997,454,15.69,15.69,0,0,1,997.79,459.08Zm-6.93.54a10.35,10.35,0,0,0-1.13-5.06,7.83,7.83,0,0,0-2.8-3,9.33,9.33,0,0,0-3.44-1.26A23.13,23.13,0,0,0,980,450h-6.09v19.87h5.94a13.63,13.63,0,0,0,5-.77,9.24,9.24,0,0,0,3.31-2.12,9,9,0,0,0,2-3.26A11.9,11.9,0,0,0,990.86,459.62Z"/></svg>