<svg id="Tavole" xmlns="http://www.w3.org/2000/svg" viewBox="0 0 1500 600"><defs><style>.cls-1{fill:#fff;}.cls-2{fill:#1e789f;}.cls-3{fill:#0b2e4f;}</style></defs><path class="cls-1" d="M1127.37,95H372.63a62.49,62.49,0,0,0-62.42,62.42V334.71a62.49,62.49,0,0,0,62.42,62.42h754.74a62.49,62.49,0,0,0,62.42-62.42V157.43A62.49,62.49,0,0,0,1127.37,95Z"/><path class="cls-1" d="M544.18,447.08a1.24,1.24,0,0,0-.41-.48,1,1,0,0,0-.53-.15H510.09a1,1,0,0,0-.54.15,1.06,1.06,0,0,0-.39.48,4.13,4.13,0,0,0-.23.87,6.37,6.37,0,0,0-.1,1.23,6.26,6.26,0,0,0,.1,1.22,3.59,3.59,0,0,0,.23.82,1,1,0,0,0,.93.61h13.4v41.33a.91.91,0,0,0,.15.52,1.06,1.06,0,0,0,.52.35,5.77,5.77,0,0,0,1,.22,12.88,12.88,0,0,0,3,0,6.36,6.36,0,0,0,1-.22,1.07,1.07,0,0,0,.51-.35.91.91,0,0,0,.15-.52V451.83h13.41a1.08,1.08,0,0,0,.53-.14,1.28,1.28,0,0,0,.41-.47,2.29,2.29,0,0,0,.23-.82,8.6,8.6,0,0,0,.08-1.22,8.75,8.75,0,0,0-.08-1.23A2.6,2.6,0,0,0,544.18,447.08Z"/><path class="cls-1" d="M555.88,446.55a5.18,5.18,0,0,0-1-.22,10.45,10.45,0,0,0-1.53-.1,9.89,9.89,0,0,0-1.45.1,5.3,5.3,0,0,0-1,.22,1.06,1.06,0,0,0-.56.35.82.82,0,0,0-.16.51v45.75a1,1,0,0,0,.14.52,1.06,1.06,0,0,0,.52.35,6,6,0,0,0,1,.22,10.94,10.94,0,0,0,1.51.09,10.65,10.65,0,0,0,1.53-.09,6.09,6.09,0,0,0,1-.22,1,1,0,0,0,.51-.35.91.91,0,0,0,.15-.52V447.41a.88.88,0,0,0-.15-.51A.91.91,0,0,0,555.88,446.55Z"/><path class="cls-1" d="M602.43,446.66a3.33,3.33,0,0,0-1-.24,12.26,12.26,0,0,0-1.47-.08,13.16,13.16,0,0,0-1.58.08,3.51,3.51,0,0,0-1,.24,1.23,1.23,0,0,0-.52.38.79.79,0,0,0-.16.48v25.86q0,2.91,0,6.06t.09,6.06h0c-.57-1.16-1.14-2.3-1.72-3.45s-1.17-2.3-1.76-3.48-1.21-2.37-1.86-3.59-1.3-2.46-2-3.74l-11.18-20.92a16.07,16.07,0,0,0-1.15-1.89,5,5,0,0,0-1.15-1.18,3.6,3.6,0,0,0-1.33-.61,7.82,7.82,0,0,0-1.84-.19h-3.12a3,3,0,0,0-1.82.63,2.46,2.46,0,0,0-.84,2.1v44a.87.87,0,0,0,.16.5,1,1,0,0,0,.5.37,5.55,5.55,0,0,0,1,.22,10.65,10.65,0,0,0,1.53.09,10.9,10.9,0,0,0,1.54-.09,6.2,6.2,0,0,0,1-.22,1,1,0,0,0,.52-.37.87.87,0,0,0,.16-.5V464.39c0-1.81,0-3.64,0-5.49s-.06-3.64-.11-5.41h.07q1,2.17,2.16,4.48t2.3,4.4l14.54,27.11a20.14,20.14,0,0,0,1.41,2.35,7.44,7.44,0,0,0,1.34,1.46,3.84,3.84,0,0,0,1.41.74,6.8,6.8,0,0,0,1.73.2h2.1a3.4,3.4,0,0,0,1-.15,2.57,2.57,0,0,0,.89-.48,2.44,2.44,0,0,0,.65-.85,2.93,2.93,0,0,0,.25-1.25v-44a.86.86,0,0,0-.16-.48A1.29,1.29,0,0,0,602.43,446.66Z"/><path class="cls-1" d="M639.8,489.46a1.26,1.26,0,0,0-.42-.46,1,1,0,0,0-.53-.15H620V471.8h16a1.19,1.19,0,0,0,.53-.13,1,1,0,0,0,.4-.43,2.26,2.26,0,0,0,.24-.77,7.44,7.44,0,0,0,.08-1.14,8.6,8.6,0,0,0-.08-1.22,2.44,2.44,0,0,0-.24-.81,1.39,1.39,0,0,0-.4-.46.92.92,0,0,0-.53-.16H620v-15h18.64a1,1,0,0,0,.53-.15,1,1,0,0,0,.39-.46,3,3,0,0,0,.24-.81,6.51,6.51,0,0,0,.09-1.16,7,7,0,0,0-.09-1.23,3.6,3.6,0,0,0-.24-.83,1.06,1.06,0,0,0-.39-.48,1,1,0,0,0-.53-.15H616a2.62,2.62,0,0,0-1.6.58,2.37,2.37,0,0,0-.76,2v42.51a2.38,2.38,0,0,0,.76,2,2.61,2.61,0,0,0,1.6.57h22.88a1,1,0,0,0,.53-.15,1.26,1.26,0,0,0,.42-.48,2.32,2.32,0,0,0,.26-.83,7.94,7.94,0,0,0,.07-1.16,8.51,8.51,0,0,0-.07-1.23A2.15,2.15,0,0,0,639.8,489.46Z"/><path class="cls-1" d="M667.33,469.77l12.37-21a4.21,4.21,0,0,0,.52-1.31.75.75,0,0,0-.24-.75,2,2,0,0,0-1-.35,15.25,15.25,0,0,0-1.86-.1c-.71,0-1.28,0-1.7.06a4.43,4.43,0,0,0-1,.18,1.21,1.21,0,0,0-.54.37c-.12.16-.24.34-.37.54L663.35,465.2l-10.24-17.82c-.15-.2-.28-.38-.41-.54a1.14,1.14,0,0,0-.59-.37,5.69,5.69,0,0,0-1.1-.18q-.71-.06-1.8-.06c-.86,0-1.54,0-2,.08a1.72,1.72,0,0,0-1,.35.73.73,0,0,0-.17.77,6.71,6.71,0,0,0,.57,1.31L659,469.92l-13,21.91a4.36,4.36,0,0,0-.57,1.29.8.8,0,0,0,.19.76,1.69,1.69,0,0,0,1,.37,16,16,0,0,0,1.92.09c.74,0,1.32,0,1.77-.06a4.18,4.18,0,0,0,1-.18,1.51,1.51,0,0,0,.6-.35,2.39,2.39,0,0,0,.41-.55l10.72-19,10.61,19a1.49,1.49,0,0,0,.35.53,1.59,1.59,0,0,0,.58.35,3.69,3.69,0,0,0,1.05.2c.45,0,1.06.06,1.85.06a17.61,17.61,0,0,0,2-.09,2.13,2.13,0,0,0,1.09-.37.75.75,0,0,0,.24-.76,4.36,4.36,0,0,0-.57-1.29Z"/><path class="cls-1" d="M719.13,451.69a1.2,1.2,0,0,0,.41-.47,2.5,2.5,0,0,0,.24-.82,8.73,8.73,0,0,0,.07-1.22,8.88,8.88,0,0,0-.07-1.23,2.85,2.85,0,0,0-.24-.87,1.16,1.16,0,0,0-.41-.48,1,1,0,0,0-.53-.15H685.45a1,1,0,0,0-.53.15,1.06,1.06,0,0,0-.39.48,3.56,3.56,0,0,0-.24.87,7.37,7.37,0,0,0-.09,1.23,7.24,7.24,0,0,0,.09,1.22,3.11,3.11,0,0,0,.24.82,1.09,1.09,0,0,0,.39.47,1,1,0,0,0,.53.14h13.41v41.33a1,1,0,0,0,.14.52,1.06,1.06,0,0,0,.52.35,6,6,0,0,0,1,.22,10.94,10.94,0,0,0,1.51.09,10.65,10.65,0,0,0,1.53-.09,6.09,6.09,0,0,0,1-.22,1.11,1.11,0,0,0,.52-.35,1,1,0,0,0,.14-.52V451.83H718.6A1,1,0,0,0,719.13,451.69Z"/><path class="cls-1" d="M740,447.6a2.14,2.14,0,0,0-.41-.69,1.7,1.7,0,0,0-.74-.42,5.82,5.82,0,0,0-1.25-.2c-.51,0-1.17-.06-2-.06s-1.35,0-1.82.06a5.31,5.31,0,0,0-1.18.2,1.62,1.62,0,0,0-.7.41,1.92,1.92,0,0,0-.39.66l-16,44.27a4.44,4.44,0,0,0-.32,1.31,1,1,0,0,0,.26.76,1.74,1.74,0,0,0,1,.35,13.7,13.7,0,0,0,1.75.09c.68,0,1.24,0,1.67-.07a3.4,3.4,0,0,0,1-.24,1.52,1.52,0,0,0,.53-.41,2.19,2.19,0,0,0,.3-.57l3.9-11.46h19.82l4.09,11.61a2.57,2.57,0,0,0,.31.55,1.1,1.1,0,0,0,.51.35,3.78,3.78,0,0,0,1,.18c.45,0,1.06.06,1.82.06s1.37,0,1.82-.07a1.73,1.73,0,0,0,1-.34.88.88,0,0,0,.27-.75,4.37,4.37,0,0,0-.31-1.31Zm-12.79,28.95,8.22-23.76h0l8.33,23.76Z"/><path class="cls-1" d="M815.92,450a10.19,10.19,0,0,0-1.75-1.24,17.52,17.52,0,0,0-3.13-1.4,32.62,32.62,0,0,0-4.26-1.12,26,26,0,0,0-5.12-.48,25.35,25.35,0,0,0-9.67,1.79,21.46,21.46,0,0,0-7.47,5,22.35,22.35,0,0,0-4.83,7.84,31.69,31.69,0,0,0-.13,20.15,21.39,21.39,0,0,0,4.59,7.59,20.11,20.11,0,0,0,7.35,4.88,26.73,26.73,0,0,0,9.87,1.71,29.87,29.87,0,0,0,3.64-.22,32.07,32.07,0,0,0,3.65-.66,33,33,0,0,0,3.5-1.07c1.13-.42,2.05-.81,2.76-1.16a2.9,2.9,0,0,0,1.4-1.24,3.79,3.79,0,0,0,.33-1.65V470.62a3.57,3.57,0,0,0-.18-1.18,1.86,1.86,0,0,0-.52-.81,2.19,2.19,0,0,0-.73-.44,2.32,2.32,0,0,0-.81-.15H799.27a.94.94,0,0,0-.55.15,1.21,1.21,0,0,0-.39.46,2.59,2.59,0,0,0-.24.81,8.19,8.19,0,0,0-.07,1.19,4.6,4.6,0,0,0,.31,2,1,1,0,0,0,.94.62h11.05v13.89a16.59,16.59,0,0,1-4.22,1.6,19.23,19.23,0,0,1-4.47.54,18.06,18.06,0,0,1-6.84-1.26,14.65,14.65,0,0,1-5.36-3.68,17.25,17.25,0,0,1-3.51-6,25.74,25.74,0,0,1-.11-15.69,17.78,17.78,0,0,1,3.33-6,15.4,15.4,0,0,1,5.3-4,16.91,16.91,0,0,1,7.07-1.43,20.6,20.6,0,0,1,5.73.7,26,26,0,0,1,4.15,1.54,24,24,0,0,1,2.76,1.55,3.32,3.32,0,0,0,1.47.7.85.85,0,0,0,.48-.15,1.08,1.08,0,0,0,.37-.49,3.61,3.61,0,0,0,.22-.89,9,9,0,0,0,.07-1.23,7,7,0,0,0-.18-1.81A2.56,2.56,0,0,0,815.92,450Z"/><path class="cls-1" d="M857.46,490.47,853.19,480q-.74-1.8-1.47-3.24a18.79,18.79,0,0,0-1.57-2.54,10.87,10.87,0,0,0-1.79-1.9,9,9,0,0,0-2.13-1.3,18.72,18.72,0,0,0,3.79-1.81,12.24,12.24,0,0,0,2.91-2.52,10.43,10.43,0,0,0,1.86-3.35,13.33,13.33,0,0,0,.65-4.29,13.56,13.56,0,0,0-.72-4.52,10.62,10.62,0,0,0-2.16-3.63,11.6,11.6,0,0,0-3.55-2.61,18.15,18.15,0,0,0-4.88-1.51c-.64-.07-1.36-.14-2.16-.2s-1.79-.1-3-.1H828.84a2.62,2.62,0,0,0-1.6.58,2.37,2.37,0,0,0-.76,2v44.13a.91.91,0,0,0,.15.52,1.06,1.06,0,0,0,.52.35,5.94,5.94,0,0,0,1,.22,10.84,10.84,0,0,0,1.53.09,10.65,10.65,0,0,0,1.53-.09,5.34,5.34,0,0,0,1-.22,1.18,1.18,0,0,0,.51-.35.85.85,0,0,0,.17-.52v-20.3h4.24a9.64,9.64,0,0,1,3.72.65,8.25,8.25,0,0,1,2.69,1.8,11.69,11.69,0,0,1,2,2.77c.55,1.06,1.08,2.24,1.6,3.51l4.38,11.24a3.4,3.4,0,0,0,.35.74,1.55,1.55,0,0,0,.57.46,3.5,3.5,0,0,0,1,.24c.4,0,.93.07,1.56.07s1.33,0,1.77-.07a4,4,0,0,0,1-.23.82.82,0,0,0,.48-.36,1.08,1.08,0,0,0,.11-.52,3.72,3.72,0,0,0-.14-.83C858,492,857.81,491.36,857.46,490.47Zm-14.12-23.33a13.91,13.91,0,0,1-4.33.61h-6.19V451.69h5.34c1.25,0,2.27,0,3,.11a11.8,11.8,0,0,1,2.08.36,7.07,7.07,0,0,1,4.2,2.79,8.52,8.52,0,0,1,1.25,4.73,8.79,8.79,0,0,1-.57,3.2,6.48,6.48,0,0,1-1.78,2.56A8.69,8.69,0,0,1,843.34,467.14Z"/><path class="cls-1" d="M899.74,452a16.54,16.54,0,0,0-6.5-4.62,27.05,27.05,0,0,0-18.71.16,18.11,18.11,0,0,0-6.81,5,21.35,21.35,0,0,0-4.09,7.82,36,36,0,0,0-1.37,10.24A39.06,39.06,0,0,0,863.52,481a19.8,19.8,0,0,0,3.81,7.59,16.51,16.51,0,0,0,6.48,4.66,24.72,24.72,0,0,0,9.3,1.6,24.17,24.17,0,0,0,9.54-1.75,17.85,17.85,0,0,0,6.8-5,21.91,21.91,0,0,0,4.07-7.9,37,37,0,0,0,1.36-10.43,37.47,37.47,0,0,0-1.27-10.25A19.71,19.71,0,0,0,899.74,452Zm-2.3,25.55A17.72,17.72,0,0,1,895,483.6a12.64,12.64,0,0,1-4.56,4.18,14.45,14.45,0,0,1-7,1.55,15.17,15.17,0,0,1-7-1.42,11.24,11.24,0,0,1-4.44-4,17.21,17.21,0,0,1-2.35-6.09,39.69,39.69,0,0,1-.7-7.74,34,34,0,0,1,.75-7.24,17.43,17.43,0,0,1,2.5-6,13,13,0,0,1,4.55-4.12,14.12,14.12,0,0,1,6.91-1.55,15,15,0,0,1,6.92,1.44,11.57,11.57,0,0,1,4.47,4,17.48,17.48,0,0,1,2.39,6,37.19,37.19,0,0,1,.72,7.54A35.3,35.3,0,0,1,897.44,477.51Z"/><path class="cls-1" d="M948,446.55a4.63,4.63,0,0,0-.95-.22,11.45,11.45,0,0,0-3,0,5.18,5.18,0,0,0-1,.22.83.83,0,0,0-.66.86v29.14a18.15,18.15,0,0,1-.79,5.6,10.86,10.86,0,0,1-2.29,4,9.34,9.34,0,0,1-3.64,2.43,14,14,0,0,1-4.92.81,13.3,13.3,0,0,1-4.85-.83,9.78,9.78,0,0,1-3.68-2.46,11,11,0,0,1-2.34-4.11,18.58,18.58,0,0,1-.81-5.78V447.41a.88.88,0,0,0-.15-.51.89.89,0,0,0-.49-.35,4.83,4.83,0,0,0-1-.22,10.68,10.68,0,0,0-1.51-.1,10.55,10.55,0,0,0-1.55.1,5,5,0,0,0-.95.22.94.94,0,0,0-.52.35.88.88,0,0,0-.15.51V477a22.2,22.2,0,0,0,1.25,7.74,14.87,14.87,0,0,0,3.58,5.58,15.34,15.34,0,0,0,5.56,3.37,21.54,21.54,0,0,0,7.18,1.14,22.7,22.7,0,0,0,7.7-1.22,15.31,15.31,0,0,0,5.75-3.57,15.86,15.86,0,0,0,3.63-5.77,22.21,22.21,0,0,0,1.27-7.75v-29.1a.82.82,0,0,0-.17-.51A1,1,0,0,0,948,446.55Z"/><path class="cls-1" d="M985.45,451.57a12.48,12.48,0,0,0-3.41-2.85,13.83,13.83,0,0,0-3.94-1.58,27.39,27.39,0,0,0-3.35-.56c-1-.08-1.94-.13-3-.13h-10.2a2.67,2.67,0,0,0-1.73.63,2.55,2.55,0,0,0-.77,2.1v44a1,1,0,0,0,.14.52,1.06,1.06,0,0,0,.52.35,5.85,5.85,0,0,0,1,.22,13,13,0,0,0,3,0,5.34,5.34,0,0,0,1-.22,1.22,1.22,0,0,0,.52-.35.85.85,0,0,0,.16-.52V476h5.42a23.17,23.17,0,0,0,7.6-1.11,15.09,15.09,0,0,0,5.38-3.13,13.63,13.63,0,0,0,3.37-4.9,16.74,16.74,0,0,0,1.18-6.45,15,15,0,0,0-.76-4.91A12.26,12.26,0,0,0,985.45,451.57ZM981,464.89a8.47,8.47,0,0,1-1.95,3.13,9.18,9.18,0,0,1-3.19,2.05,13.29,13.29,0,0,1-4.77.73h-5.71V451.69h5.86a22.55,22.55,0,0,1,3.33.25,9.23,9.23,0,0,1,3.32,1.22,7.69,7.69,0,0,1,2.69,2.91,9.93,9.93,0,0,1,1.08,4.86A11.59,11.59,0,0,1,981,464.89Z"/><path class="cls-2" d="M710.11,382.6H372.63a48,48,0,0,1-47.89-47.89V157.43a48,48,0,0,1,47.89-47.89H710.11v16.31H372.63a31.61,31.61,0,0,0-31.58,31.58V334.71a31.62,31.62,0,0,0,31.58,31.58H710.11Z"/><path class="cls-3" d="M1127.37,382.6H758.25V366.29h369.12A31.62,31.62,0,0,0,1159,334.71V157.43a31.61,31.61,0,0,0-31.58-31.58H758.25V109.54h369.12a48,48,0,0,1,47.89,47.89V334.71A48,48,0,0,1,1127.37,382.6Z"/><path class="cls-3" d="M421.17,190.11v111.8H404.83V190.11Z"/><path class="cls-3" d="M456.79,301.91H440.6V190.11h16.19l60.76,91.59h-4.63V190.11h16.19v111.8H512.92l-60.6-91.6h4.47Z"/><path class="cls-3" d="M562.42,190.11v111.8H546.07V190.11Zm43.33,64.76H547v-14.8h58.75Zm8.17-49.8H547.31v-15h66.61Z"/><path class="cls-3" d="M726,245.93q0,17-6.86,30a51.43,51.43,0,0,1-19,20.43q-12.18,7.41-28.06,7.41T644,296.35A51,51,0,0,1,625,276q-6.79-13-6.79-30.07t6.86-30a51.46,51.46,0,0,1,19-20.44A52.7,52.7,0,0,1,672,188.1q16,0,28.14,7.4a51.8,51.8,0,0,1,19,20.36Q726,228.82,726,245.93Zm-17.12,0q0-12.8-4.55-22.21a34.94,34.94,0,0,0-12.8-14.65,35.34,35.34,0,0,0-19.35-5.24,35.74,35.74,0,0,0-19.43,5.24,34.75,34.75,0,0,0-12.87,14.65q-4.56,9.42-4.55,22.21t4.55,22.2a34,34,0,0,0,12.87,14.73A36,36,0,0,0,672.18,288a35.26,35.26,0,0,0,19.35-5.25,34.77,34.77,0,0,0,12.8-14.72Q708.88,258.58,708.88,245.93Z"/><path class="cls-2" d="M790.76,303.76q-16,0-28.06-7.17A48.66,48.66,0,0,1,744,276.38q-6.63-13-6.63-30.3t6.78-30.37a49.84,49.84,0,0,1,19-20.21q12.25-7.25,28.29-7.24a55.23,55.23,0,0,1,23.13,4.7,45.22,45.22,0,0,1,17.12,13.34,44.57,44.57,0,0,1,8.79,20.35H823.15a30,30,0,0,0-11.57-16.8q-8.48-6-20.51-6a35.34,35.34,0,0,0-19.35,5.24A34.43,34.43,0,0,0,759,223.72q-4.49,9.42-4.47,22.21a51.14,51.14,0,0,0,4.54,22.2,34.23,34.23,0,0,0,12.8,14.73,35.37,35.37,0,0,0,19.2,5.17q12,0,20.82-5.94A29,29,0,0,0,823.76,266h17.12a44.42,44.42,0,0,1-9.33,19.73A48.42,48.42,0,0,1,814.05,299,55.59,55.59,0,0,1,790.76,303.76Z"/><path class="cls-2" d="M924,301.91H855.42V190.11h68.47v15H864.83l6.93-6.17v39.47h46.88v14.5H871.76v40.25l-6.93-6.33H924Z"/><path class="cls-2" d="M954.88,301.91H938.54V190.11h42.4q18.19,0,28.45,8.94t10.26,25q0,11.57-5.55,19.51a31.87,31.87,0,0,1-15.73,11.64l22.2,46.73h-17.89l-20.5-43.64h-27.3Zm0-97.31v39.32h26.06q10.18,0,15.88-5.32t5.71-14.41q0-9.57-5.78-14.58t-15.81-5Z"/><path class="cls-2" d="M1026,205.07v-15h83v15Zm49.66-7.41V301.91h-16.35V197.66Z"/></svg>